<mxfile host="Electron" agent="Mozilla/5.0 (Macintosh; Intel Mac OS X 10_15_7) AppleWebKit/537.36 (KHTML, like Gecko) draw.io/27.0.2 Chrome/134.0.6998.205 Electron/35.3.0 Safari/537.36" version="27.0.2">
  <diagram name="Page-1" id="lsKdSVxY1TOtrrbRoiUY">
    <mxGraphModel dx="1186" dy="916" grid="0" gridSize="10" guides="1" tooltips="1" connect="1" arrows="1" fold="1" page="1" pageScale="1" pageWidth="850" pageHeight="1100" math="0" shadow="0">
      <root>
        <mxCell id="0" />
        <mxCell id="1" parent="0" />
        <mxCell id="2v0J70ZVLZzhAqZERehU-1" value="educational content" style="shape=umlFrame;whiteSpace=wrap;html=1;pointerEvents=0;" vertex="1" parent="1">
          <mxGeometry x="118" y="110" width="571" height="773" as="geometry" />
        </mxCell>
        <mxCell id="2v0J70ZVLZzhAqZERehU-9" style="edgeStyle=none;shape=connector;rounded=0;orthogonalLoop=1;jettySize=auto;html=1;exitX=0;exitY=0.3333333333333333;exitDx=0;exitDy=0;exitPerimeter=0;entryX=1;entryY=0.5;entryDx=0;entryDy=0;strokeColor=default;align=center;verticalAlign=middle;fontFamily=Helvetica;fontSize=11;fontColor=default;labelBackgroundColor=default;startFill=0;endArrow=none;" edge="1" parent="1" source="2v0J70ZVLZzhAqZERehU-2" target="2v0J70ZVLZzhAqZERehU-8">
          <mxGeometry relative="1" as="geometry" />
        </mxCell>
        <mxCell id="2v0J70ZVLZzhAqZERehU-12" style="edgeStyle=none;shape=connector;rounded=0;orthogonalLoop=1;jettySize=auto;html=1;exitX=0;exitY=0.3333333333333333;exitDx=0;exitDy=0;exitPerimeter=0;entryX=1;entryY=0.5;entryDx=0;entryDy=0;strokeColor=default;align=center;verticalAlign=middle;fontFamily=Helvetica;fontSize=11;fontColor=default;labelBackgroundColor=default;startFill=0;endArrow=none;" edge="1" parent="1" source="2v0J70ZVLZzhAqZERehU-2" target="2v0J70ZVLZzhAqZERehU-10">
          <mxGeometry relative="1" as="geometry" />
        </mxCell>
        <mxCell id="2v0J70ZVLZzhAqZERehU-14" style="edgeStyle=none;shape=connector;rounded=0;orthogonalLoop=1;jettySize=auto;html=1;exitX=0;exitY=0.3333333333333333;exitDx=0;exitDy=0;exitPerimeter=0;entryX=1;entryY=0.5;entryDx=0;entryDy=0;strokeColor=default;align=center;verticalAlign=middle;fontFamily=Helvetica;fontSize=11;fontColor=default;labelBackgroundColor=default;startFill=0;endArrow=none;" edge="1" parent="1" source="2v0J70ZVLZzhAqZERehU-2" target="2v0J70ZVLZzhAqZERehU-13">
          <mxGeometry relative="1" as="geometry" />
        </mxCell>
        <mxCell id="2v0J70ZVLZzhAqZERehU-2" value="adnim" style="shape=umlActor;verticalLabelPosition=bottom;verticalAlign=top;html=1;" vertex="1" parent="1">
          <mxGeometry x="763" y="360" width="30" height="60" as="geometry" />
        </mxCell>
        <mxCell id="2v0J70ZVLZzhAqZERehU-5" style="rounded=0;orthogonalLoop=1;jettySize=auto;html=1;exitX=1;exitY=0.3333333333333333;exitDx=0;exitDy=0;exitPerimeter=0;entryX=0;entryY=0.5;entryDx=0;entryDy=0;endArrow=none;startFill=0;" edge="1" parent="1" source="2v0J70ZVLZzhAqZERehU-3" target="2v0J70ZVLZzhAqZERehU-4">
          <mxGeometry relative="1" as="geometry" />
        </mxCell>
        <mxCell id="2v0J70ZVLZzhAqZERehU-7" style="rounded=0;orthogonalLoop=1;jettySize=auto;html=1;exitX=1;exitY=0.3333333333333333;exitDx=0;exitDy=0;exitPerimeter=0;entryX=0;entryY=0.5;entryDx=0;entryDy=0;endArrow=none;startFill=0;" edge="1" parent="1" source="2v0J70ZVLZzhAqZERehU-3" target="2v0J70ZVLZzhAqZERehU-6">
          <mxGeometry relative="1" as="geometry" />
        </mxCell>
        <mxCell id="2v0J70ZVLZzhAqZERehU-16" style="edgeStyle=none;shape=connector;rounded=0;orthogonalLoop=1;jettySize=auto;html=1;exitX=1;exitY=0.3333333333333333;exitDx=0;exitDy=0;exitPerimeter=0;entryX=0;entryY=0.5;entryDx=0;entryDy=0;strokeColor=default;align=center;verticalAlign=middle;fontFamily=Helvetica;fontSize=11;fontColor=default;labelBackgroundColor=default;startFill=0;endArrow=none;" edge="1" parent="1" source="2v0J70ZVLZzhAqZERehU-3" target="2v0J70ZVLZzhAqZERehU-15">
          <mxGeometry relative="1" as="geometry" />
        </mxCell>
        <mxCell id="2v0J70ZVLZzhAqZERehU-3" value="patient" style="shape=umlActor;verticalLabelPosition=bottom;verticalAlign=top;html=1;" vertex="1" parent="1">
          <mxGeometry x="55" y="360" width="30" height="60" as="geometry" />
        </mxCell>
        <mxCell id="2v0J70ZVLZzhAqZERehU-4" value="show all&amp;nbsp;educational content" style="ellipse;whiteSpace=wrap;html=1;" vertex="1" parent="1">
          <mxGeometry x="211" y="295" width="140" height="70" as="geometry" />
        </mxCell>
        <mxCell id="2v0J70ZVLZzhAqZERehU-6" value="search&amp;nbsp;educational content by subject" style="ellipse;whiteSpace=wrap;html=1;" vertex="1" parent="1">
          <mxGeometry x="211" y="387" width="140" height="70" as="geometry" />
        </mxCell>
        <mxCell id="2v0J70ZVLZzhAqZERehU-8" value="add , edit , delete&amp;nbsp;educational content" style="ellipse;whiteSpace=wrap;html=1;fontFamily=Helvetica;fontSize=11;fontColor=default;labelBackgroundColor=default;" vertex="1" parent="1">
          <mxGeometry x="506" y="251.5" width="140" height="70" as="geometry" />
        </mxCell>
        <mxCell id="2v0J70ZVLZzhAqZERehU-10" value="show list of all&amp;nbsp;educational content" style="ellipse;whiteSpace=wrap;html=1;fontFamily=Helvetica;fontSize=11;fontColor=default;labelBackgroundColor=default;" vertex="1" parent="1">
          <mxGeometry x="506" y="355" width="140" height="70" as="geometry" />
        </mxCell>
        <mxCell id="2v0J70ZVLZzhAqZERehU-13" value="search&amp;nbsp;educational content by subject" style="ellipse;whiteSpace=wrap;html=1;fontFamily=Helvetica;fontSize=11;fontColor=default;labelBackgroundColor=default;" vertex="1" parent="1">
          <mxGeometry x="506" y="458.5" width="140" height="70" as="geometry" />
        </mxCell>
        <mxCell id="2v0J70ZVLZzhAqZERehU-15" value="filter&amp;nbsp;educational content by disease or specialty" style="ellipse;whiteSpace=wrap;html=1;fontFamily=Helvetica;fontSize=11;fontColor=default;labelBackgroundColor=default;" vertex="1" parent="1">
          <mxGeometry x="211" y="492" width="140" height="70" as="geometry" />
        </mxCell>
      </root>
    </mxGraphModel>
  </diagram>
</mxfile>
